<svg xmlns="http://www.w3.org/2000/svg" viewBox="0 0 512 512" width="512" height="512">
  <defs>
    <linearGradient id="g" x1="0" y1="0" x2="512" y2="512" gradientUnits="userSpaceOnUse">
      <stop offset="0%"   stop-color="#7C3AED"/>
      <stop offset="50%"  stop-color="#06B6D4"/>
      <stop offset="100%" stop-color="#7C3AED"/>
    </linearGradient>
  </defs>

  <polyline
    points="397.4,256.0 401.8,260.2 406.0,264.4 410.1,268.6 414.0,272.7 417.8,276.9 421.4,281.1 424.9,285.2 428.1,289.4 431.3,293.5 434.2,297.6 437.0,301.7 439.6,305.7 442.0,309.8 444.2,313.8 446.2,317.8 448.1,321.8 449.7,325.7 451.2,329.6 452.5,333.5 453.5,337.3 454.4,341.2 455.1,344.9 455.6,348.7 455.9,352.4 456.0,356.0 455.9,359.6 455.6,363.2 455.1,366.7 454.4,370.1 453.5,373.6 452.5,376.9 451.2,380.2 449.7,383.5 448.1,386.7 446.2,389.8 444.2,392.9 442.0,395.9 439.6,398.9 437.0,401.8 434.2,404.6 431.3,407.4 428.1,410.1 424.9,412.7 421.4,415.3 417.8,417.8 414.0,420.2 410.1,422.6 406.0,424.9 401.8,427.1 397.4,429.2 392.9,431.3 388.3,433.2 383.5,435.1 378.6,437.0 373.6,438.7 368.4,440.4 363.2,442.0 357.8,443.5 352.4,444.9 346.8,446.2 341.2,447.5 335.4,448.6 329.6,449.7 323.7,450.7 317.8,451.6 311.8,452.5 305.7,453.2 299.6,453.9 293.5,454.4 287.3,454.9 281.1,455.3 274.8,455.6 268.6,455.8 262.3,456.0 256.0,456.0 249.7,456.0 243.4,455.8 237.2,455.6 230.9,455.3 224.7,454.9 218.5,454.4 212.4,453.9 206.3,453.2 200.2,452.5 194.2,451.6 188.3,450.7 182.4,449.7 176.6,448.6 170.8,447.5 165.2,446.2 159.6,444.9 154.2,443.5 148.8,442.0 143.6,440.4 138.4,438.7 133.4,437.0 128.5,435.1 123.7,433.2 119.1,431.3 114.6,429.2 110.2,427.1 106.0,424.9 101.9,422.6 98.0,420.2 94.2,417.8 90.6,415.3 87.1,412.7 83.9,410.1 80.7,407.4 77.8,404.6 75.0,401.8 72.4,398.9 70.0,395.9 67.8,392.9 65.8,389.8 63.9,386.7 62.3,383.5 60.8,380.2 59.5,376.9 58.5,373.6 57.6,370.1 56.9,366.7 56.4,363.2 56.1,359.6 56.0,356.0 56.1,352.4 56.4,348.7 56.9,344.9 57.6,341.2 58.5,337.3 59.5,333.5 60.8,329.6 62.3,325.7 63.9,321.8 65.8,317.8 67.8,313.8 70.0,309.8 72.4,305.7 75.0,301.7 77.8,297.6 80.7,293.5 83.9,289.4 87.1,285.2 90.6,281.1 94.2,276.9 98.0,272.7 101.9,268.6 106.0,264.4 110.2,260.2 114.6,256.0 119.1,251.8 123.7,247.6 128.5,243.4 133.4,239.3 138.4,235.1 143.6,230.9 148.8,226.8 154.2,222.6 159.6,218.5 165.2,214.4 170.8,210.3 176.6,206.3 182.4,202.2 188.3,198.2 194.2,194.2 200.2,190.2 206.3,186.3 212.4,182.4 218.5,178.5 224.7,174.7 230.9,170.8 237.2,167.1 243.4,163.3 249.7,159.6 256.0,156.0 262.3,152.4 268.6,148.8 274.8,145.3 281.1,141.9 287.3,138.4 293.5,135.1 299.6,131.8 305.7,128.5 311.8,125.3 317.8,122.2 323.7,119.1 329.6,116.1 335.4,113.1 341.2,110.2 346.8,107.4 352.4,104.6 357.8,101.9 363.2,99.3 368.4,96.7 373.6,94.2 378.6,91.8 383.5,89.4 388.3,87.1 392.9,84.9 397.4,82.8 401.8,80.7 406.0,78.8 410.1,76.9 414.0,75.0 417.8,73.3 421.4,71.6 424.9,70.0 428.1,68.5 431.3,67.1 434.2,65.8 437.0,64.5 439.6,63.4 442.0,62.3 444.2,61.3 446.2,60.4 448.1,59.5 449.7,58.8 451.2,58.1 452.5,57.6 453.5,57.1 454.4,56.7 455.1,56.4 455.6,56.2 455.9,56.0 456.0,56.0 455.9,56.0 455.6,56.2 455.1,56.4 454.4,56.7 453.5,57.1 452.5,57.6 451.2,58.1 449.7,58.8 448.1,59.5 446.2,60.4 444.2,61.3 442.0,62.3 439.6,63.4 437.0,64.5 434.2,65.8 431.3,67.1 428.1,68.5 424.9,70.0 421.4,71.6 417.8,73.3 414.0,75.0 410.1,76.9 406.0,78.8 401.8,80.7 397.4,82.8 392.9,84.9 388.3,87.1 383.5,89.4 378.6,91.8 373.6,94.2 368.4,96.7 363.2,99.3 357.8,101.9 352.4,104.6 346.8,107.4 341.2,110.2 335.4,113.1 329.6,116.1 323.7,119.1 317.8,122.2 311.8,125.3 305.7,128.5 299.6,131.8 293.5,135.1 287.3,138.4 281.1,141.9 274.8,145.3 268.6,148.8 262.3,152.4 256.0,156.0 249.7,159.6 243.4,163.3 237.2,167.1 230.9,170.8 224.7,174.7 218.5,178.5 212.4,182.4 206.3,186.3 200.2,190.2 194.2,194.2 188.3,198.2 182.4,202.2 176.6,206.3 170.8,210.3 165.2,214.4 159.6,218.5 154.2,222.6 148.8,226.8 143.6,230.9 138.4,235.1 133.4,239.3 128.5,243.4 123.7,247.6 119.1,251.8 114.6,256.0 110.2,260.2 106.0,264.4 101.9,268.6 98.0,272.7 94.2,276.9 90.6,281.1 87.1,285.2 83.9,289.4 80.7,293.5 77.8,297.6 75.0,301.7 72.4,305.7 70.0,309.8 67.8,313.8 65.8,317.8 63.9,321.8 62.3,325.7 60.8,329.6 59.5,333.5 58.5,337.3 57.6,341.2 56.9,344.9 56.4,348.7 56.1,352.4 56.0,356.0 56.1,359.6 56.4,363.2 56.9,366.7 57.6,370.1 58.5,373.6 59.5,376.9 60.8,380.2 62.3,383.5 63.9,386.7 65.8,389.8 67.8,392.9 70.0,395.9 72.4,398.9 75.0,401.8 77.8,404.6 80.7,407.4 83.9,410.1 87.1,412.7 90.6,415.3 94.2,417.8 98.0,420.2 101.9,422.6 106.0,424.9 110.2,427.1 114.6,429.2 119.1,431.3 123.7,433.2 128.5,435.1 133.4,437.0 138.4,438.7 143.6,440.4 148.8,442.0 154.2,443.5 159.6,444.9 165.2,446.2 170.8,447.5 176.6,448.6 182.4,449.7 188.3,450.7 194.2,451.6 200.2,452.5 206.3,453.2 212.4,453.9 218.5,454.4 224.7,454.9 230.9,455.3 237.2,455.6 243.4,455.8 249.7,456.0 256.0,456.0 262.3,456.0 268.6,455.8 274.8,455.6 281.1,455.3 287.3,454.9 293.5,454.4 299.6,453.9 305.7,453.2 311.8,452.5 317.8,451.6 323.7,450.7 329.6,449.7 335.4,448.6 341.2,447.5 346.8,446.2 352.4,444.9 357.8,443.5 363.2,442.0 368.4,440.4 373.6,438.7 378.6,437.0 383.5,435.1 388.3,433.2 392.9,431.3 397.4,429.2 401.8,427.1 406.0,424.9 410.1,422.6 414.0,420.2 417.8,417.8 421.4,415.3 424.9,412.7 428.1,410.1 431.3,407.4 434.2,404.6 437.0,401.8 439.6,398.9 442.0,395.9 444.2,392.9 446.2,389.8 448.1,386.7 449.7,383.5 451.2,380.2 452.5,376.9 453.5,373.6 454.4,370.1 455.1,366.7 455.6,363.2 455.9,359.6 456.0,356.0 455.9,352.4 455.6,348.7 455.1,344.9 454.4,341.2 453.5,337.3 452.5,333.5 451.2,329.6 449.7,325.7 448.1,321.8 446.2,317.8 444.2,313.8 442.0,309.8 439.6,305.7 437.0,301.7 434.2,297.6 431.3,293.5 428.1,289.4 424.9,285.2 421.4,281.1 417.8,276.9 414.0,272.7 410.1,268.6 406.0,264.4 401.8,260.2 397.4,256.0 392.9,251.8 388.3,247.6 383.5,243.4 378.6,239.3 373.6,235.1 368.4,230.9 363.2,226.8 357.8,222.6 352.4,218.5 346.8,214.4 341.2,210.3 335.4,206.3 329.6,202.2 323.7,198.2 317.8,194.2 311.8,190.2 305.7,186.3 299.6,182.4 293.5,178.5 287.3,174.7 281.1,170.8 274.8,167.1 268.6,163.3 262.3,159.6 256.0,156.0 249.7,152.4 243.4,148.8 237.2,145.3 230.9,141.9 224.7,138.4 218.5,135.1 212.4,131.8 206.3,128.5 200.2,125.3 194.2,122.2 188.3,119.1 182.4,116.1 176.6,113.1 170.8,110.2 165.2,107.4 159.6,104.6 154.2,101.9 148.8,99.3 143.6,96.7 138.4,94.2 133.4,91.8 128.5,89.4 123.7,87.1 119.1,84.9 114.6,82.8 110.2,80.7 106.0,78.8 101.9,76.9 98.0,75.0 94.2,73.3 90.6,71.6 87.1,70.0 83.9,68.5 80.7,67.1 77.8,65.8 75.0,64.5 72.4,63.4 70.0,62.3 67.8,61.3 65.8,60.4 63.9,59.5 62.3,58.8 60.8,58.1 59.5,57.6 58.5,57.1 57.6,56.7 56.9,56.4 56.4,56.2 56.1,56.0 56.0,56.0 56.1,56.0 56.4,56.2 56.9,56.4 57.6,56.7 58.5,57.1 59.5,57.6 60.8,58.1 62.3,58.8 63.9,59.5 65.8,60.4 67.8,61.3 70.0,62.3 72.4,63.4 75.0,64.5 77.8,65.8 80.7,67.1 83.9,68.5 87.1,70.0 90.6,71.6 94.2,73.3 98.0,75.0 101.9,76.9 106.0,78.8 110.2,80.7 114.6,82.8 119.1,84.9 123.7,87.1 128.5,89.4 133.4,91.8 138.4,94.2 143.6,96.7 148.8,99.3 154.2,101.9 159.6,104.6 165.2,107.4 170.8,110.2 176.6,113.1 182.4,116.1 188.3,119.1 194.2,122.2 200.2,125.3 206.3,128.5 212.4,131.8 218.5,135.1 224.7,138.4 230.9,141.9 237.2,145.3 243.4,148.8 249.7,152.4 256.0,156.0 262.3,159.6 268.6,163.3 274.8,167.1 281.1,170.8 287.3,174.7 293.5,178.5 299.6,182.4 305.7,186.3 311.8,190.2 317.8,194.2 323.7,198.2 329.6,202.2 335.4,206.3 341.2,210.3 346.8,214.4 352.4,218.5 357.8,222.6 363.2,226.8 368.4,230.9 373.6,235.1 378.6,239.3 383.5,243.4 388.3,247.6 392.9,251.8 397.4,256.0"
    fill="none"
    stroke="url(#g)"
    stroke-width="8"
    stroke-linecap="round"
    stroke-linejoin="round"
  />
</svg>